<?xml version="1.0" encoding="UTF-8" standalone="no"?>
<!-- Created with Inkscape (http://www.inkscape.org/) -->

<svg
   xmlns:dc="http://purl.org/dc/elements/1.1/"
   xmlns:cc="http://creativecommons.org/ns#"
   xmlns:rdf="http://www.w3.org/1999/02/22-rdf-syntax-ns#"
   xmlns:svg="http://www.w3.org/2000/svg"
   xmlns="http://www.w3.org/2000/svg"
   xmlns:sodipodi="http://sodipodi.sourceforge.net/DTD/sodipodi-0.dtd"
   xmlns:inkscape="http://www.inkscape.org/namespaces/inkscape"
   width="297mm"
   height="210mm"
   viewBox="0 0 1052.3622 744.09448"
   id="svg4521"
   version="1.1"
   inkscape:version="0.48.5 r10040"
   sodipodi:docname="regions_def.png"
   inkscape:export-filename="C:\Users\User-PC\Desktop\rect5487.png"
   inkscape:export-xdpi="90"
   inkscape:export-ydpi="90">
  <defs
     id="defs4523">
    <marker
       inkscape:stockid="Arrow2Mend"
       orient="auto"
       refY="0.0"
       refX="0.0"
       id="Arrow2Mend"
       style="overflow:visible;">
      <path
         id="path3902"
         style="fill-rule:evenodd;stroke-width:0.62500000;stroke-linejoin:round;"
         d="M 8.7185878,4.0337352 L -2.2072895,0.016013256 L 8.7185884,-4.0017078 C 6.9730900,-1.6296469 6.9831476,1.6157441 8.7185878,4.0337352 z "
         transform="scale(0.6) rotate(180) translate(0,0)" />
    </marker>
    <marker
       inkscape:stockid="Arrow2Mstart"
       orient="auto"
       refY="0.0"
       refX="0.0"
       id="Arrow2Mstart"
       style="overflow:visible">
      <path
         id="path3899"
         style="fill-rule:evenodd;stroke-width:0.62500000;stroke-linejoin:round"
         d="M 8.7185878,4.0337352 L -2.2072895,0.016013256 L 8.7185884,-4.0017078 C 6.9730900,-1.6296469 6.9831476,1.6157441 8.7185878,4.0337352 z "
         transform="scale(0.6) translate(0,0)" />
    </marker>
    <inkscape:path-effect
       effect="spiro"
       id="path-effect5101"
       is_visible="true" />
    <inkscape:path-effect
       effect="spiro"
       id="path-effect5097"
       is_visible="true" />
    <inkscape:path-effect
       effect="spiro"
       id="path-effect5093"
       is_visible="true" />
    <inkscape:path-effect
       effect="spiro"
       id="path-effect5089"
       is_visible="true" />
    <inkscape:path-effect
       effect="spiro"
       id="path-effect5093-1"
       is_visible="true" />
    <marker
       inkscape:stockid="Arrow2Mstart"
       orient="auto"
       refY="0"
       refX="0"
       id="Arrow2Mstart-9"
       style="overflow:visible">
      <path
         inkscape:connector-curvature="0"
         id="path3899-6"
         style="fill-rule:evenodd;stroke-width:0.625;stroke-linejoin:round"
         d="M 8.7185878,4.0337352 -2.2072895,0.01601326 8.7185884,-4.0017078 c -1.7454984,2.3720609 -1.7354408,5.6174519 -6e-7,8.035443 z"
         transform="scale(0.6,0.6)" />
    </marker>
    <marker
       inkscape:stockid="Arrow2Mend"
       orient="auto"
       refY="0"
       refX="0"
       id="Arrow2Mend-3"
       style="overflow:visible">
      <path
         inkscape:connector-curvature="0"
         id="path3902-1"
         style="fill-rule:evenodd;stroke-width:0.625;stroke-linejoin:round"
         d="M 8.7185878,4.0337352 -2.2072895,0.01601326 8.7185884,-4.0017078 c -1.7454984,2.3720609 -1.7354408,5.6174519 -6e-7,8.035443 z"
         transform="scale(-0.6,-0.6)" />
    </marker>
    <marker
       inkscape:stockid="Arrow2Mstart"
       orient="auto"
       refY="0"
       refX="0"
       id="Arrow2Mstart-8"
       style="overflow:visible">
      <path
         inkscape:connector-curvature="0"
         id="path3899-1"
         style="fill-rule:evenodd;stroke-width:0.625;stroke-linejoin:round"
         d="M 8.7185878,4.0337352 -2.2072895,0.01601326 8.7185884,-4.0017078 c -1.7454984,2.3720609 -1.7354408,5.6174519 -6e-7,8.035443 z"
         transform="scale(0.6,0.6)" />
    </marker>
    <marker
       inkscape:stockid="Arrow2Mend"
       orient="auto"
       refY="0"
       refX="0"
       id="Arrow2Mend-2"
       style="overflow:visible">
      <path
         inkscape:connector-curvature="0"
         id="path3902-5"
         style="fill-rule:evenodd;stroke-width:0.625;stroke-linejoin:round"
         d="M 8.7185878,4.0337352 -2.2072895,0.01601326 8.7185884,-4.0017078 c -1.7454984,2.3720609 -1.7354408,5.6174519 -6e-7,8.035443 z"
         transform="scale(-0.6,-0.6)" />
    </marker>
  </defs>
  <sodipodi:namedview
     id="base"
     pagecolor="#ffffff"
     bordercolor="#666666"
     borderopacity="1.0"
     inkscape:pageopacity="0.0"
     inkscape:pageshadow="2"
     inkscape:zoom="0.54924057"
     inkscape:cx="796.00599"
     inkscape:cy="382.88932"
     inkscape:document-units="px"
     inkscape:current-layer="layer3"
     showgrid="false"
     inkscape:window-width="1321"
     inkscape:window-height="744"
     inkscape:window-x="45"
     inkscape:window-y="24"
     inkscape:window-maximized="1" />
  <metadata
     id="metadata4526">
    <rdf:RDF>
      <cc:Work
         rdf:about="">
        <dc:format>image/svg+xml</dc:format>
        <dc:type
           rdf:resource="http://purl.org/dc/dcmitype/StillImage" />
        <dc:title></dc:title>
      </cc:Work>
    </rdf:RDF>
  </metadata>
  <g
     inkscape:label="Layer 1"
     inkscape:groupmode="layer"
     id="layer1"
     transform="translate(0,-308.26772)">
    <path
       style="opacity:0.7;fill:#333333;fill-opacity:1;stroke-width:1.05900002;stroke-miterlimit:4;stroke-dasharray:none"
       d="M 982.96591,1042.0005 C 498.94729,964.86892 241.9295,885.79192 154.87044,787.21929 134.04735,763.64233 127.14166,747.69695 127.05922,723.00254 126.75437,631.71082 289.14912,532.2395 591.54257,438.49347 710.43148,401.63634 929.26688,347.45067 1029.9764,329.93326 l 12.5996,-2.19159 -2.491,284.4814 c -1.3701,156.46476 -2.0414,318.97231 -1.4918,361.12788 0.9562,73.34055 0.7675,76.63175 -4.3735,76.30385 -2.955,-0.1887 -26.0192,-3.6328 -51.25379,-7.6543 z"
       id="path5075-2"
       inkscape:connector-curvature="0" />
  </g>
  <g
     inkscape:groupmode="layer"
     id="layer3"
     inkscape:label="Layer 2">
    <rect
       style="opacity:0.74199997;fill:#999999;fill-opacity:1;stroke-width:1.05900002;stroke-miterlimit:4;stroke-dasharray:none"
       id="rect5385"
       width="44.446712"
       height="35.497799"
       x="48.312023"
       y="700.5639" />
    <rect
       style="fill:#cccccc;fill-opacity:1;stroke-width:1.05900002;stroke-miterlimit:4;stroke-dasharray:none"
       id="rect5385-0"
       width="44.446712"
       height="35.497799"
       x="109.15739"
       y="138.222" />
    <rect
       style="fill:#ff9955;fill-opacity:0.47058824;stroke-width:1.05900002;stroke-miterlimit:4;stroke-dasharray:none"
       id="rect5385-7"
       width="44.446712"
       height="35.497799"
       x="109.1574"
       y="188.66628" />
    <text
       xml:space="preserve"
       style="font-size:32.00000006px;font-style:normal;font-weight:normal;line-height:125%;letter-spacing:0px;word-spacing:0px;fill:#000000;fill-opacity:1;stroke:none;font-family:sans-serif"
       x="163.2554"
       y="169.9628"
       id="text5412"
       sodipodi:linespacing="125%"
       transform="scale(1.0398832,0.96164649)"><tspan
         sodipodi:role="line"
         id="tspan5414"
         x="163.2554"
         y="169.9628"
         style="font-size:32.00000006px;font-style:italic;font-variant:normal;font-weight:normal;font-stretch:normal;font-family:sans-serif;-inkscape-font-specification:sans-serif Italic">reliable region</tspan></text>
    <text
       xml:space="preserve"
       style="font-size:30.00000006px;font-style:normal;font-weight:normal;line-height:125%;letter-spacing:0px;word-spacing:0px;fill:#000000;fill-opacity:1;stroke:none;font-family:sans-serif"
       x="157.42694"
       y="224.36174"
       id="text5416"
       sodipodi:linespacing="125%"
       transform="scale(1.0398832,0.96164649)"><tspan
         sodipodi:role="line"
         id="tspan5418"
         x="157.42694"
         y="224.36174"
         style="font-style:italic;font-variant:normal;font-weight:normal;font-stretch:normal;font-family:sans-serif;-inkscape-font-specification:sans-serif Italic;font-size:30.00000006px">safe region</tspan></text>
    <path
       style="fill:none;stroke:#000000;stroke-width:0.89765066px;stroke-linecap:butt;stroke-linejoin:miter;stroke-opacity:1"
       d="m 1042.9152,75.645616 0,63.982214 -5.1403,429.96051 2.5701,107.49015 C -367.18008,489.00694 303.04993,209.46572 1042.9152,75.645616 z"
       id="path5073"
       inkscape:connector-curvature="0"
       sodipodi:nodetypes="ccccc" />
    <path
       style="opacity:0.47000002;fill:#999999;fill-opacity:1;stroke-width:1.05900002;stroke-miterlimit:4;stroke-dasharray:none"
       d="M 987.52833,668.42215 C 553.71049,604.67889 323.34973,539.32788 245.32013,457.8652 226.65675,438.38068 220.46729,425.20305 220.39339,404.79503 220.12017,329.34948 365.67189,247.14411 636.70212,169.67028 743.26027,139.2107 939.3988,94.430439 1029.6631,79.953648 l 11.2928,-1.811178 -2.2326,235.10188 c -1.228,129.30604 -1.8297,263.60597 -1.3371,298.44429 0.857,60.61021 0.6879,63.33016 -3.9199,63.05911 -2.6485,-0.15586 -23.3206,-3.00229 -45.93797,-6.3256 z"
       id="path5075"
       inkscape:connector-curvature="0" />
    <path
       style="fill:none;stroke:#000000;stroke-width:0.89765066px;stroke-linecap:butt;stroke-linejoin:miter;stroke-opacity:1"
       d="M 1037.7749,106.35708 C 1212.2622,120.68424 -109.2953,304.14312 402.94648,495.36896 1695.926,802.06964 1041.871,616.54039 1037.7749,500.48754 l 7.7104,-299.43677 z"
       id="path5077"
       inkscape:connector-curvature="0"
       sodipodi:nodetypes="ccccc" />
    <path
       style="fill:#cccccc;fill-opacity:1;stroke-width:1.05900002;stroke-miterlimit:4;stroke-dasharray:none"
       d="M 1020.4623,634.86003 C 1017.6351,634.20669 970.79404,623.93191 916.371,612.02721 861.94796,600.1225 763.06124,577.79518 696.62272,562.41096 389.92865,491.39421 388.15813,490.91501 344.82265,467.19593 c -44.66742,-24.44808 -61.6458,-46.06249 -57.27074,-72.90876 4.86156,-29.83166 52.17536,-64.78744 133.39236,-98.55126 89.90512,-37.37567 191.41467,-67.16076 433.743,-127.26955 95.41702,-23.6679 175.36773,-43.82366 177.66833,-44.79058 3.3727,-1.41757 4.5035,0.37824 5.8384,9.2724 0.9106,6.06675 1.7396,18.51637 1.8423,27.66583 0.1028,9.14945 1.0767,21.48633 2.1645,27.41526 1.2355,6.73365 1.006,11.1025 -0.6115,11.63938 -2.7587,0.91566 -4.3573,118.11598 -4.3981,322.44488 l -0.023,114.52817 -5.7829,-0.29687 c -3.1805,-0.1633 -8.096,-0.83144 -10.9231,-1.4848 z"
       id="path5079"
       inkscape:connector-curvature="0" />
    <rect
       style="opacity:0.47000002;fill:#ffffff;fill-opacity:1;stroke-width:1.05900002;stroke-miterlimit:4;stroke-dasharray:none"
       id="rect5081"
       width="616.83728"
       height="603.99213"
       x="1038.0885"
       y="78.719704" />
    <rect
       style="fill:#ffffff;fill-opacity:1;stroke-width:1.05900002;stroke-miterlimit:4;stroke-dasharray:none"
       id="rect5085"
       width="187.62134"
       height="731.49231"
       x="1038.3451"
       y="13.346875" />
    <path
       style="fill:none;stroke:#000000;stroke-width:0.9616465px;stroke-linecap:butt;stroke-linejoin:miter;stroke-opacity:1"
       d="M 38.446712,406.32383 1044.5586,396.98231"
       id="path5087"
       inkscape:path-effect="#path-effect5089"
       inkscape:original-d="M 38.446712,406.32383 1044.5586,396.98231"
       inkscape:connector-curvature="0" />
    <path
       style="fill:none;stroke:#000000;stroke-width:0.9616465px;stroke-linecap:butt;stroke-linejoin:miter;stroke-opacity:1"
       d="m 56.629458,116.7365 4.04061,530.59872"
       id="path5091"
       inkscape:path-effect="#path-effect5093"
       inkscape:original-d="m 56.629458,116.7365 4.04061,530.59872"
       inkscape:connector-curvature="0" />
    <path
       style="fill:none;stroke:#000000;stroke-width:0.9616465px;stroke-linecap:butt;stroke-linejoin:miter;stroke-opacity:1"
       d="M 404.28437,92.448522 394.18284,652.94013"
       id="path5095"
       inkscape:original-d="M 404.28437,92.448522 394.18284,652.94013"
       inkscape:connector-curvature="0"
       inkscape:path-effect="#path-effect5097" />
    <path
       style="fill:none;stroke:#000000;stroke-width:0.9616465px;stroke-linecap:butt;stroke-linejoin:miter;stroke-opacity:1"
       d="M 466.85714,222.22212 469,272.42359"
       id="path5099"
       inkscape:path-effect="#path-effect5101"
       inkscape:original-d="M 466.85714,222.22212 469,272.42359"
       inkscape:connector-curvature="0" />
    <text
       xml:space="preserve"
       style="font-size:16.82881355px;font-style:italic;font-variant:normal;font-weight:normal;font-stretch:normal;line-height:125%;letter-spacing:0px;word-spacing:0px;fill:#000000;fill-opacity:1;stroke:none;font-family:sans-serif;-inkscape-font-specification:sans-serif Italic"
       x="470.22086"
       y="239.9043"
       id="text5244"
       sodipodi:linespacing="125%"
       transform="scale(1.0398832,0.96164649)"><tspan
         sodipodi:role="line"
         id="tspan5246"
         x="470.22086"
         y="239.9043">r</tspan></text>
    <text
       xml:space="preserve"
       style="font-size:28px;font-style:italic;font-variant:normal;font-weight:normal;font-stretch:normal;line-height:125%;letter-spacing:0px;word-spacing:0px;fill:#000000;fill-opacity:1;stroke:none;font-family:sans-serif;-inkscape-font-specification:sans-serif Italic"
       x="83.795067"
       y="464.01328"
       id="text5248"
       sodipodi:linespacing="125%"
       transform="scale(1.0398832,0.96164647)"><tspan
         sodipodi:role="line"
         id="tspan5250"
         x="83.795067"
         y="464.01328">mr</tspan></text>
    <text
       xml:space="preserve"
       style="font-size:28px;font-style:italic;font-variant:normal;font-weight:normal;font-stretch:normal;line-height:200%;letter-spacing:0px;word-spacing:0px;fill:#000000;fill-opacity:1;stroke:none;font-family:sans-serif;-inkscape-font-specification:sans-serif Italic"
       x="289.69507"
       y="450.68747"
       id="text5252"
       sodipodi:linespacing="200%"
       transform="scale(1.0398832,0.96164647)"><tspan
         sodipodi:role="line"
         id="tspan5254"
         x="289.69507"
         y="450.68747">mr</tspan></text>
    <text
       xml:space="preserve"
       style="font-size:28px;font-style:normal;font-weight:normal;line-height:125%;letter-spacing:0px;word-spacing:0px;fill:#000000;fill-opacity:1;stroke:none;font-family:sans-serif"
       x="653.74536"
       y="479.79504"
       id="text5256"
       sodipodi:linespacing="125%"
       transform="scale(1.0398832,0.96164647)"><tspan
         sodipodi:role="line"
         id="tspan5258"
         x="653.74536"
         y="479.79504">nr</tspan></text>
    <text
       xml:space="preserve"
       style="font-size:28.00000005px;font-style:normal;font-weight:normal;line-height:125%;letter-spacing:0px;word-spacing:0px;fill:#000000;fill-opacity:1;stroke:none;font-family:sans-serif"
       x="402.22217"
       y="397.27264"
       id="text5260"
       sodipodi:linespacing="125%"
       transform="scale(1.0398832,0.96164649)"><tspan
         sodipodi:role="line"
         id="tspan5262"
         x="402.22217"
         y="397.27264"
         style="font-style:italic;font-variant:normal;font-weight:normal;font-stretch:normal;font-family:sans-serif;-inkscape-font-specification:sans-serif Italic;font-size:28.00000005px">q(a,0)</tspan></text>
    <text
       xml:space="preserve"
       style="font-size:28px;font-style:italic;font-variant:normal;font-weight:normal;font-stretch:normal;line-height:125%;letter-spacing:0px;word-spacing:0px;fill:#000000;fill-opacity:1;stroke:none;font-family:sans-serif;-inkscape-font-specification:sans-serif Italic"
       x="65.979507"
       y="395.22528"
       id="text5264"
       sodipodi:linespacing="125%"
       transform="scale(0.99975047,1.0002496)"><tspan
         sodipodi:role="line"
         id="tspan5266"
         x="65.979507"
         y="395.22528">(-a,0)</tspan></text>
    <path
       style="fill:none;stroke:#000000;stroke-width:0.90629596px;stroke-linecap:butt;stroke-linejoin:miter;stroke-opacity:1"
       d="m 656.65807,155.97275 4.04461,470.80926"
       id="path5091-5"
       inkscape:path-effect="#path-effect5093-1"
       inkscape:original-d="m 656.65807,155.97275 4.04461,470.80926"
       inkscape:connector-curvature="0" />
    <path
       style="opacity:0.31000001;fill:#ff9955;fill-opacity:1;stroke-width:1.05900002;stroke-miterlimit:4;stroke-dasharray:none"
       d="m 369.20997,262.71528 c -0.19535,0.0523 -0.37113,0.0968 -0.57618,0.15171 -0.82775,2.2644 -0.56413,1.68759 0.57618,-0.15171 z m -65.40625,6.21686 a 144.4518,153.30948 0 0 0 -0.61133,0.4642 c 0.48362,-0.23286 0.76959,-0.38929 0.61133,-0.4642 z m 172.49609,1.65266 c -2.28555,3.96832 -7.07645,6.95263 -14.35937,6.82736 -1.62016,-0.0278 -3.2414,-0.0568 -4.86133,-0.0993 -2.29467,-0.0184 -4.60216,0.20308 -6.90039,0.3233 -0.9805,0.36414 -1.262,0.45565 -2.53516,0.93742 -0.45082,0.17058 -0.88155,0.30543 -1.31445,0.44431 -0.7091,1.95312 0.51072,2.98459 5.4082,2.33359 1.09157,-0.1451 2.22742,-0.0559 3.2832,-0.39737 4.90563,-5.07924 0.88234,-0.32364 0.25586,-0.0722 -0.084,0.0336 -0.17081,0.0448 -0.25586,0.0722 -0.95798,0.99192 -2.13673,2.22787 -3.8789,4.0892 -2.33628,0.73262 -4.64758,1.58663 -7.00782,2.19812 -0.28399,0.0737 -0.57116,-0.14343 -0.86132,-0.16076 -1.48959,-0.0889 -2.55956,0.10958 -4.08985,0.49852 -0.8907,0.22638 -1.92428,1.30021 -2.73633,1.23723 -0.64107,1.03709 -1.58402,2.18251 -3.02148,3.23486 -4.89246,3.5818 -10.60894,2.43778 -15.93945,3.63223 -1.56421,0.34252 -3.11084,0.84346 -4.69336,1.02772 -0.24289,0.0284 0.80132,-0.65467 0.57422,-0.54727 -6.75696,3.19534 5.35242,-0.99708 -7.91211,4.14157 -1.15151,0.4461 -3.82768,0.78168 -6.10938,1.03313 -1.86309,2.30299 -2.22646,2.7888 -8.19922,6.27647 -2.63308,1.53755 -6.16456,-0.23258 -8.61718,2.02654 -4.21787,-0.086 -7.57625,2.0231 -11.63672,3.43355 -1.6946,0.58862 -3.5861,0.94539 -5.45899,1.20471 -2.4318,2.9311 -3.68359,3.5725 -7.91211,5.19278 -1.0317,0.39532 -2.14509,0.4499 -3.15625,0.91572 -1.68711,0.7772 -3.26621,1.86269 -4.89843,2.79417 -2.69181,1.32002 -6.92335,3.63203 -10.06836,4.39624 -0.66122,0.56509 -1.3225,1.13365 -1.98828,1.69058 0.79454,-1.77355 0.0468,0.12784 -1.54883,0.98799 -1.34282,0.72386 -2.72978,1.32362 -4.11914,1.91635 -0.29211,0.40813 -0.77393,1.0073 -1.08399,1.16679 -0.0128,0.006 -0.0413,0.0168 -0.0547,0.0235 -0.58725,0.67858 -1.17563,1.35262 -1.76368,2.03015 -4.39936,3.86598 -8.97614,7.53203 -13.58203,11.03214 -1.79111,1.36113 -3.59303,2.70943 -5.46484,3.90316 -0.23633,0.15073 -0.59282,-0.11317 -0.79883,0.0921 -1.02861,1.02488 -1.85316,2.31561 -2.7793,3.47327 -5.84134,7.50953 2.9078,-3.98851 -3.31836,5.14942 -0.97336,1.42857 -2.10098,2.6924 -3.15234,4.03862 -0.13467,-0.0195 -0.30733,-0.17009 -0.4043,-0.056 -8.06631,9.48638 2.55394,-1.22725 -7.99609,8.89002 0.34457,-0.57277 0.96523,-1.01572 1.03516,-1.71768 0.055,-0.55117 -0.68868,0.74388 -0.97852,1.17583 -1.64441,2.45042 -2.80704,5.29777 -4.21875,7.61666 -0.0609,-0.70269 -0.0879,-2.80488 -0.18359,-2.10782 -0.69004,5.02454 0.4628,12.06404 0.0801,17.26167 0.0511,4.78302 0.23123,9.84223 -0.41992,14.57767 -0.0321,0.23417 -0.0274,-1.20893 -0.24218,-0.65023 0.38731,1.85977 1.74436,8.24339 1.72656,9.09773 -0.0155,0.73716 -0.66096,0.47349 -1.40039,-0.0451 0.0323,0.1576 0.0584,0.31784 0.0918,0.47503 0.14826,0.69714 0.4687,1.41725 0.79102,2.1349 5.01633,6.30294 2.9064,0.0293 5.18359,11.07369 -0.15104,-0.47425 -0.80133,-1.7844 -0.63672,-1.31671 1.36489,3.87799 1.50169,4.02638 3.5918,7.65279 0.29985,0.52021 0.53248,1.09045 0.79883,1.63639 -1.77229,1.66573 -0.0546,-0.0993 4.7207,3.681 6.1258,4.84939 11.02097,11.8198 17.89649,15.36698 1.30581,1.49853 4.75963,4.92165 4.17968,5.32643 -0.28467,0.19869 -1.09756,-0.61798 -0.96679,-0.25468 0.64908,1.80297 8.67518,3.28691 10.3164,4.9977 2.13918,1.06341 4.42995,1.76554 6.41797,3.19152 1.22475,0.87852 4.00304,3.4387 6.17969,6.06876 3.54111,-1.77422 8.51249,-1.89672 14.42383,0.88503 2.56011,1.20475 4.67152,2.5308 7.38672,2.8646 0.0833,0.0103 0.14593,-0.20274 0.12304,-0.31427 -0.061,-0.0241 -0.12052,-0.0499 -0.18164,-0.0741 -0.5395,-0.0536 -1.10671,0.21033 -1.62695,0.0252 -0.25781,-0.0915 0.48591,-0.47871 0.74219,-0.3811 0.29666,0.11294 0.58903,0.23956 0.88476,0.35582 0.0459,0.005 0.0913,-9.3e-4 0.13672,0.007 0.0249,0.005 0.038,0.0332 0.0449,0.0669 4.12038,1.63017 8.15985,3.54402 12.24414,5.30294 0.0187,0.11812 0.069,0.26336 0.0957,0.38832 4.66343,2.70742 8.95696,6.15638 13.65234,8.7943 0.36602,0.16951 0.72563,0.35683 1.08789,0.54004 0.14747,0.019 0.27186,0.0397 0.44141,0.0669 2.12643,0.23531 4.31449,0.17344 6.29883,1.0801 2.46959,1.12839 4.43438,3.45467 6.67187,5.144 1.16465,0.8793 2.3572,1.70608 3.53516,2.55935 2.67408,2.16906 3.26626,2.61074 4.98242,3.54191 -0.0147,-0.0351 -0.0207,-0.0773 -0.0137,-0.12823 0.059,-0.42246 0.70294,-0.1317 1.05469,-0.19868 4.5769,-0.3802 2.50227,-0.24205 6.22265,-0.45336 7.63935,-0.43386 12.61658,2.67615 14.86524,6.85988 2.64192,-2.82603 5.21532,-3.70115 9.41796,-0.87058 1.70761,-0.39728 3.63917,-0.63035 5.82422,-0.63035 l 13.25782,0 c 3.69547,0 6.70338,0.63973 9.0332,1.67974 a 144.4518,153.30948 0 0 0 57.51172,-121.89517 144.4518,153.30948 0 0 0 -57.12305,-121.7907 z m -145.69726,62.77919 c 0.3228,-0.37298 0.64573,-0.74601 0.9707,-1.11622 -1.92862,0.82163 -3.86128,1.63102 -5.69336,2.7165 -1.47191,0.87209 3.16109,-0.80889 4.72266,-1.60028 z m 0.9707,-1.11622 c 0.0562,-0.024 0.11157,-0.0499 0.16797,-0.0741 0.21157,-0.29562 0.33616,-0.50468 0.1582,-0.30344 -0.11006,0.12459 -0.21644,0.25249 -0.32617,0.37749 z m 72.48437,-59.0422 c 0.001,0.006 0.003,0.0135 0.004,0.0199 0.0114,-0.003 0.0213,-0.006 0.0332,-0.0127 -0.0128,-8.8e-4 -0.0234,-0.009 -0.0371,-0.007 z m -27.46875,8.14948 c -0.12195,0.0103 -0.24344,0.023 -0.36523,0.0362 0.0821,0.0714 0.16421,0.14303 0.24805,0.21493 0.0416,-0.0837 0.073,-0.16791 0.11718,-0.25105 z m 61.26758,4.12892 c -0.077,0.094 -0.20655,0.69479 -0.52148,1.52442 0.30884,-0.17828 0.5966,-0.35664 0.78711,-0.53824 -0.15067,-0.78742 -0.19851,-1.06782 -0.26563,-0.98618 z m -36.23633,13.17609 c -0.0107,-9.3e-4 -0.0368,0.024 -0.0859,0.0794 -0.51366,0.57966 -0.93186,1.07228 -1.30274,1.51719 0.0648,-0.0343 0.13322,-0.0576 0.19727,-0.0939 0.42688,-0.24238 1.25478,-1.49227 1.1914,-1.50274 z m -138.33398,18.59642 c -0.0455,0.0557 -0.0769,0.0997 -0.11914,0.14991 a 144.4518,153.30948 0 0 0 -1.91797,3.54554 c 0.35384,-0.52035 1.06007,-1.62614 2.00976,-3.13192 0.002,-0.18446 0.02,-0.37628 0.0274,-0.56353 z m 78.7832,8.13142 c -0.006,-0.003 -0.0248,0.003 -0.0547,0.0271 -0.46613,0.36287 -0.91641,0.75258 -1.37304,1.13247 0.2911,-0.13925 0.59493,-0.28244 0.77734,-0.39916 0.21945,-0.14046 0.69483,-0.73773 0.65039,-0.76041 z m -97.38086,61.85443 a 144.4518,153.30948 0 0 0 -0.16992,5.13316 144.4518,153.30948 0 0 0 0.0566,1.19751 c 0.1112,-2.19123 0.20879,-4.36336 0.11328,-6.33067 z m 34.72657,104.79274 a 144.4518,153.30948 0 0 0 11.15624,12.40665 c -1.0124,-1.65441 -2.0754,-3.26091 -3.07226,-4.92546 -1.40234,-0.90007 -2.77506,-1.86424 -4.02734,-3.03077 -1.23056,-1.1463 -2.26758,-2.56559 -3.21094,-4.09822 -0.28058,-0.12065 -0.56826,-0.22023 -0.8457,-0.3522 z m 114.48632,3.55636 c 0.15307,0.0251 0.30881,0.032 0.46289,0.0523 -0.0151,-0.006 -0.0299,-0.014 -0.0449,-0.0216 -0.39816,-0.0513 -0.69282,-0.0759 -0.41797,-0.0307 z m 0.46289,0.0523 c 0.47601,0.24001 0.95642,0.4678 1.45313,0.63217 0.11985,0.0397 -0.0526,-0.35478 -0.17188,-0.39736 -0.19876,-0.0712 -0.5426,-0.13496 -0.88476,-0.18965 -0.13218,-0.0147 -0.26492,-0.0277 -0.39649,-0.0451 z m 22.19336,12.5367 c 0.39674,0.2128 0.75778,0.40696 1.3125,0.7008 0.2486,0.13169 -0.42559,-0.41064 -0.66797,-0.55811 -0.16066,-0.0978 -0.42925,-0.10313 -0.64453,-0.14269 z"
       id="path5103"
       inkscape:connector-curvature="0" />
    <text
       xml:space="preserve"
       style="font-size:30px;font-style:normal;font-weight:normal;line-height:125%;letter-spacing:0px;word-spacing:0px;fill:#000000;fill-opacity:1;stroke:none;font-family:sans-serif"
       x="99.142365"
       y="712.1084"
       id="text5479"
       sodipodi:linespacing="125%"
       transform="scale(1.0398832,0.96164647)"><tspan
         sodipodi:role="line"
         id="tspan5481"
         x="99.142365"
         y="712.1084"
         style="font-size:30px;font-style:italic;font-variant:normal;font-weight:normal;font-stretch:normal;font-family:sans-serif;-inkscape-font-specification:sans-serif Italic">known region for obstacles</tspan></text>
    <text
       xml:space="preserve"
       style="font-size:30px;font-style:normal;font-weight:normal;line-height:125%;letter-spacing:0px;word-spacing:0px;fill:#000000;fill-opacity:1;stroke:none;font-family:sans-serif"
       x="98.723259"
       y="750.12311"
       id="text5483"
       sodipodi:linespacing="125%"
       transform="scale(1.0398832,0.96164648)"><tspan
         sodipodi:role="line"
         id="tspan5485"
         x="98.723259"
         y="750.12311"
         style="font-size:30px;font-style:italic;font-variant:normal;font-weight:normal;font-stretch:normal;font-family:sans-serif;-inkscape-font-specification:sans-serif Italic">known region for POIs</tspan></text>
    <rect
       style="fill:#666666;fill-opacity:1;stroke-width:1.05900002;stroke-miterlimit:4;stroke-dasharray:none"
       id="rect5487"
       width="40.406101"
       height="31.761192"
       x="50.568542"
       y="660.41339" />
    <path
       style="fill:none;stroke:#000000;stroke-width:2.5166924;stroke-linecap:butt;stroke-linejoin:miter;stroke-miterlimit:4;stroke-opacity:1;stroke-dasharray:7.55007741, 7.55007741;stroke-dashoffset:0;marker-start:url(#Arrow2Mstart);marker-end:url(#Arrow2Mend)"
       d="m 415.06148,430.85535 620.97162,-2.42071"
       id="path3101"
       inkscape:connector-curvature="0" />
    <path
       style="fill:none;stroke:#000000;stroke-width:1.94309258;stroke-linecap:butt;stroke-linejoin:miter;stroke-miterlimit:4;stroke-opacity:1;stroke-dasharray:5.82927803, 5.82927803;stroke-dashoffset:0;marker-start:url(#Arrow2Mstart);marker-end:url(#Arrow2Mend)"
       d="m 59.11544,423.74291 153.14554,-5.85109"
       id="path3101-7"
       inkscape:connector-curvature="0" />
    <path
       style="fill:none;stroke:#000000;stroke-width:2.0920403;stroke-linecap:butt;stroke-linejoin:miter;stroke-miterlimit:4;stroke-opacity:1;stroke-dasharray:6.27612111, 6.27612111;stroke-dashoffset:0;marker-start:url(#Arrow2Mstart);marker-end:url(#Arrow2Mend)"
       d="M 222.02135,450.24661 399.5455,444.39552"
       id="path3101-7-8"
       inkscape:connector-curvature="0" />
    <path
       style="fill:none;stroke:#000000;stroke-width:1px;stroke-linecap:butt;stroke-linejoin:miter;stroke-opacity:1"
       d="m 216.6628,401.80367 0,63.72435"
       id="path4563"
       inkscape:connector-curvature="0"
       transform="translate(0,-7.3563764e-6)" />
  </g>
</svg>
